<mxfile host="app.diagrams.net" modified="2023-09-04T14:03:36.211Z" agent="Mozilla/5.0 (Windows NT 10.0; Win64; x64) AppleWebKit/537.36 (KHTML, like Gecko) Chrome/115.0.0.0 Safari/537.36" version="21.7.2" etag="yru5FS9SY74EcWieOqRv" type="github">
  <diagram name="PÃ¡gina-1" id="paSHZFFJyPvUovxjluJJ">
    <mxGraphModel>
      <root>
        <mxCell id="0" />
        <mxCell id="1" parent="0" />
      </root>
    </mxGraphModel>
  </diagram>
</mxfile>
